<?xml version="1.0" encoding="utf-8"?>
<!-- Generated by Mocodo 4.3.2 -->
<svg width="921" height="424" viewBox="0 0 921 424" xmlns="http://www.w3.org/2000/svg">
<rect x="0" y="0" width="921" height="424" fill="#ffffbf" stroke="none" stroke-width="0"/>

<!-- Association ATTRIBUER -->
<g>
	<line x1="449" y1="212" x2="316" y2="43" stroke="#66bd63" stroke-width="2"/>
	<line x1="177" y1="43" x2="316" y2="43" stroke="#66bd63" stroke-width="2"/>
	<g>
		<path d="M344 18 a14 14 90 0 1 14 14 V43 h-84 V32 a14 14 90 0 1 14 -14" fill="#a6d96a" stroke="#a6d96a" stroke-width="0"/>
		<path d="M358 43 v11 a14 14 90 0 1 -14 14 H288 a14 14 90 0 1 -14 -14 V43 H84" fill="#d9ef8b" stroke="#d9ef8b" stroke-width="0"/>
		<rect x="274" y="18" width="84" height="50" fill="none" rx="14" stroke="#66bd63" stroke-width="2"/>
		<line x1="274" y1="43" x2="358" y2="43" stroke="#66bd63" stroke-width="1"/>
		<text x="281" y="35.75" fill="#000000" font-family="Verdana" font-size="12">ATTRIBUER</text>
	</g>
	<text x="361.54" y="94" fill="#d73027" font-family="Verdana" font-size="12">1,1</text>
	<text x="213" y="60" fill="#d73027" font-family="Verdana" font-size="12">1,N</text>
</g>

<!-- Association APPARTIENT -->
<g>
	<line x1="449" y1="212" x2="449" y2="43" stroke="#66bd63" stroke-width="2"/>
	<line x1="594" y1="43" x2="449" y2="43" stroke="#66bd63" stroke-width="2"/>
	<g>
		<path d="M481 18 a14 14 90 0 1 14 14 V43 h-92 V32 a14 14 90 0 1 14 -14" fill="#a6d96a" stroke="#a6d96a" stroke-width="0"/>
		<path d="M495 43 v11 a14 14 90 0 1 -14 14 H417 a14 14 90 0 1 -14 -14 V43 H92" fill="#d9ef8b" stroke="#d9ef8b" stroke-width="0"/>
		<rect x="403" y="18" width="92" height="50" fill="none" rx="14" stroke="#66bd63" stroke-width="2"/>
		<line x1="403" y1="43" x2="495" y2="43" stroke="#66bd63" stroke-width="1"/>
		<text x="411" y="35.75" fill="#000000" font-family="Verdana" font-size="12">APPARTIENT</text>
	</g>
	<text x="454" y="94" fill="#d73027" font-family="Verdana" font-size="12">1,1</text>
	<text x="516" y="60" fill="#d73027" font-family="Verdana" font-size="12">1,N</text>
</g>

<!-- Association SE_SITUE -->
<g>
	<line x1="449" y1="212" x2="177" y2="212" stroke="#66bd63" stroke-width="2"/>
	<line x1="58" y1="43" x2="177" y2="212" stroke="#66bd63" stroke-width="2"/>
	<line x1="58" y1="212" x2="177" y2="212" stroke="#66bd63" stroke-width="2"/>
	<line x1="177" y1="381" x2="177" y2="212" stroke="#66bd63" stroke-width="2"/>
	<g>
		<path d="M201 187 a14 14 90 0 1 14 14 V212 h-76 V201 a14 14 90 0 1 14 -14" fill="#a6d96a" stroke="#a6d96a" stroke-width="0"/>
		<path d="M215 212 v11 a14 14 90 0 1 -14 14 H153 a14 14 90 0 1 -14 -14 V212 H76" fill="#d9ef8b" stroke="#d9ef8b" stroke-width="0"/>
		<rect x="139" y="187" width="76" height="50" fill="none" rx="14" stroke="#66bd63" stroke-width="2"/>
		<line x1="139" y1="212" x2="215" y2="212" stroke="#66bd63" stroke-width="1"/>
		<text x="147" y="204.75" fill="#000000" font-family="Verdana" font-size="12">SE_SITUE</text>
	</g>
	<text x="333" y="229" fill="#d73027" font-family="Verdana" font-size="12">1,1</text>
	<text x="60.3" y="94" fill="#d73027" font-family="Verdana" font-size="12">1,N</text>
	<text x="112" y="229" fill="#d73027" font-family="Verdana" font-size="12">1,N</text>
	<text x="182" y="339" fill="#d73027" font-family="Verdana" font-size="12">1,N</text>
</g>

<!-- Association ETRE -->
<g>
	<line x1="449" y1="212" x2="594" y2="212" stroke="#66bd63" stroke-width="2"/>
	<line x1="782" y1="212" x2="594" y2="212" stroke="#66bd63" stroke-width="2"/>
	<g>
		<path d="M603 187 a14 14 90 0 1 14 14 V212 h-46 V201 a14 14 90 0 1 14 -14" fill="#a6d96a" stroke="#a6d96a" stroke-width="0"/>
		<path d="M617 212 v11 a14 14 90 0 1 -14 14 H585 a14 14 90 0 1 -14 -14 V212 H46" fill="#d9ef8b" stroke="#d9ef8b" stroke-width="0"/>
		<rect x="571" y="187" width="46" height="50" fill="none" rx="14" stroke="#66bd63" stroke-width="2"/>
		<line x1="571" y1="212" x2="617" y2="212" stroke="#66bd63" stroke-width="1"/>
		<text x="578" y="204.75" fill="#000000" font-family="Verdana" font-size="12">ETRE</text>
	</g>
	<text x="544" y="204" fill="#d73027" font-family="Verdana" font-size="12">1,1</text>
	<text x="701" y="229" fill="#d73027" font-family="Verdana" font-size="12">1,N</text>
</g>

<!-- Association EST -->
<g>
	<line x1="58" y1="212" x2="58" y2="381" stroke="#66bd63" stroke-width="2"/>
	<line x1="177" y1="381" x2="58" y2="381" stroke="#66bd63" stroke-width="2"/>
	<g>
		<path d="M63 356 a14 14 90 0 1 14 14 V381 h-38 V370 a14 14 90 0 1 14 -14" fill="#a6d96a" stroke="#a6d96a" stroke-width="0"/>
		<path d="M77 381 v11 a14 14 90 0 1 -14 14 H53 a14 14 90 0 1 -14 -14 V381 H38" fill="#d9ef8b" stroke="#d9ef8b" stroke-width="0"/>
		<rect x="39" y="356" width="38" height="50" fill="none" rx="14" stroke="#66bd63" stroke-width="2"/>
		<line x1="39" y1="381" x2="77" y2="381" stroke="#66bd63" stroke-width="1"/>
		<text x="46" y="373.75" fill="#000000" font-family="Verdana" font-size="12">EST</text>
	</g>
	<text x="63" y="263" fill="#d73027" font-family="Verdana" font-size="12">1,1</text>
	<text x="105" y="398" fill="#d73027" font-family="Verdana" font-size="12">1,N</text>
</g>

<!-- Association REQUIERT -->
<g>
	<line x1="449" y1="212" x2="449" y2="381" stroke="#66bd63" stroke-width="2"/>
	<line x1="316" y1="381" x2="449" y2="381" stroke="#66bd63" stroke-width="2"/>
	<g>
		<path d="M474 356 a14 14 90 0 1 14 14 V381 h-78 V370 a14 14 90 0 1 14 -14" fill="#a6d96a" stroke="#a6d96a" stroke-width="0"/>
		<path d="M488 381 v11 a14 14 90 0 1 -14 14 H424 a14 14 90 0 1 -14 -14 V381 H78" fill="#d9ef8b" stroke="#d9ef8b" stroke-width="0"/>
		<rect x="410" y="356" width="78" height="50" fill="none" rx="14" stroke="#66bd63" stroke-width="2"/>
		<line x1="410" y1="381" x2="488" y2="381" stroke="#66bd63" stroke-width="1"/>
		<text x="417" y="373.75" fill="#000000" font-family="Verdana" font-size="12">REQUIERT</text>
	</g>
	<text x="423" y="339" fill="#d73027" font-family="Verdana" font-size="12">1,1</text>
	<text x="383" y="398" fill="#d73027" font-family="Verdana" font-size="12">1,N</text>
</g>

<!-- Association CORRESPONDRE -->
<g>
	<line x1="449" y1="212" x2="594" y2="381" stroke="#66bd63" stroke-width="2"/>
	<line x1="782" y1="381" x2="594" y2="381" stroke="#66bd63" stroke-width="2"/>
	<g>
		<path d="M638 356 a14 14 90 0 1 14 14 V381 h-116 V370 a14 14 90 0 1 14 -14" fill="#a6d96a" stroke="#a6d96a" stroke-width="0"/>
		<path d="M652 381 v11 a14 14 90 0 1 -14 14 H550 a14 14 90 0 1 -14 -14 V381 H116" fill="#d9ef8b" stroke="#d9ef8b" stroke-width="0"/>
		<rect x="536" y="356" width="116" height="50" fill="none" rx="14" stroke="#66bd63" stroke-width="2"/>
		<line x1="536" y1="381" x2="652" y2="381" stroke="#66bd63" stroke-width="1"/>
		<text x="543" y="373.75" fill="#000000" font-family="Verdana" font-size="12">CORRESPONDRE</text>
	</g>
	<text x="544" y="315.21" fill="#d73027" font-family="Verdana" font-size="12">1,1</text>
	<text x="657" y="398" fill="#d73027" font-family="Verdana" font-size="12">1,N</text>
</g>

<!-- Entity CITY -->
<g>
	<g>
		<rect x="21" y="9" width="74" height="25" fill="#fdae61" stroke="none" stroke-width="0" opacity="1"/>
		<rect x="21" y="34" width="74" height="43" fill="#fee08b" stroke="none" stroke-width="0" opacity="1"/>
		<rect x="21" y="9" width="74" height="68" fill="none" stroke="#f46d43" stroke-width="2" opacity="1"/>
		<line x1="21" y1="34" x2="95" y2="34" stroke="#f46d43" stroke-width="1"/>
	</g>
	<text x="44" y="26.75" fill="#000000" font-family="Verdana" font-size="12">CITY</text>
	<text x="26" y="51.8" fill="#000000" font-family="Verdana" font-size="12">id_city</text>
	<line x1="26" y1="54" x2="67" y2="54" stroke="#000000" stroke-width="1"/>
	<text x="26" y="68.8" fill="#000000" font-family="Verdana" font-size="12">city_name</text>
</g>

<!-- Entity JOB -->
<g>
	<g>
		<rect x="146" y="9" width="62" height="25" fill="#fdae61" stroke="none" stroke-width="0" opacity="1"/>
		<rect x="146" y="34" width="62" height="43" fill="#fee08b" stroke="none" stroke-width="0" opacity="1"/>
		<rect x="146" y="9" width="62" height="68" fill="none" stroke="#f46d43" stroke-width="2" opacity="1"/>
		<line x1="146" y1="34" x2="208" y2="34" stroke="#f46d43" stroke-width="1"/>
	</g>
	<text x="165" y="26.75" fill="#000000" font-family="Verdana" font-size="12">JOB</text>
	<text x="151" y="51.8" fill="#000000" font-family="Verdana" font-size="12">id_job</text>
	<line x1="151" y1="54" x2="189" y2="54" stroke="#000000" stroke-width="1"/>
	<text x="151" y="68.8" fill="#000000" font-family="Verdana" font-size="12">job_title</text>
</g>

<!-- Entity INDUTRY -->
<g>
	<g>
		<rect x="543" y="9" width="102" height="25" fill="#fdae61" stroke="none" stroke-width="0" opacity="1"/>
		<rect x="543" y="34" width="102" height="43" fill="#fee08b" stroke="none" stroke-width="0" opacity="1"/>
		<rect x="543" y="9" width="102" height="68" fill="none" stroke="#f46d43" stroke-width="2" opacity="1"/>
		<line x1="543" y1="34" x2="645" y2="34" stroke="#f46d43" stroke-width="1"/>
	</g>
	<text x="566" y="26.75" fill="#000000" font-family="Verdana" font-size="12">INDUTRY</text>
	<text x="548" y="51.8" fill="#000000" font-family="Verdana" font-size="12">id_industry</text>
	<line x1="548" y1="54" x2="617" y2="54" stroke="#000000" stroke-width="1"/>
	<text x="548" y="68.8" fill="#000000" font-family="Verdana" font-size="12">industry_name</text>
</g>

<!-- Entity COUNRTY -->
<g>
	<g>
		<rect x="9" y="178" width="98" height="25" fill="#fdae61" stroke="none" stroke-width="0" opacity="1"/>
		<rect x="9" y="203" width="98" height="43" fill="#fee08b" stroke="none" stroke-width="0" opacity="1"/>
		<rect x="9" y="178" width="98" height="68" fill="none" stroke="#f46d43" stroke-width="2" opacity="1"/>
		<line x1="9" y1="203" x2="107" y2="203" stroke="#f46d43" stroke-width="1"/>
	</g>
	<text x="28" y="195.75" fill="#000000" font-family="Verdana" font-size="12">COUNRTY</text>
	<text x="14" y="220.8" fill="#000000" font-family="Verdana" font-size="12">id_country</text>
	<line x1="14" y1="223" x2="79" y2="223" stroke="#000000" stroke-width="1"/>
	<text x="14" y="237.8" fill="#000000" font-family="Verdana" font-size="12">country_name</text>
</g>

<!-- Entity OFFRE -->
<g>
	<g>
		<rect x="359" y="102" width="180" height="25" fill="#fdae61" stroke="none" stroke-width="0" opacity="1"/>
		<rect x="359" y="127" width="180" height="195" fill="#fee08b" stroke="none" stroke-width="0" opacity="1"/>
		<rect x="359" y="102" width="180" height="220" fill="none" stroke="#f46d43" stroke-width="2" opacity="1"/>
		<line x1="359" y1="127" x2="539" y2="127" stroke="#f46d43" stroke-width="1"/>
	</g>
	<text x="429" y="119.75" fill="#000000" font-family="Verdana" font-size="12">OFFRE</text>
	<text x="364" y="144.8" fill="#000000" font-family="Verdana" font-size="12">id_offre</text>
	<line x1="364" y1="147" x2="411" y2="147" stroke="#000000" stroke-width="1"/>
	<text x="364" y="161.8" fill="#000000" font-family="Verdana" font-size="12">year</text>
	<text x="364" y="178.8" fill="#000000" font-family="Verdana" font-size="12">ai_mentionned</text>
	<text x="364" y="195.8" fill="#000000" font-family="Verdana" font-size="12">ai_intensity_score</text>
	<text x="364" y="212.8" fill="#000000" font-family="Verdana" font-size="12">core_skills</text>
	<text x="364" y="229.8" fill="#000000" font-family="Verdana" font-size="12">salary_usd</text>
	<text x="364" y="246.8" fill="#000000" font-family="Verdana" font-size="12">salary_change</text>
	<text x="364" y="263.8" fill="#000000" font-family="Verdana" font-size="12">automation_risk_score</text>
	<text x="364" y="280.8" fill="#000000" font-family="Verdana" font-size="12">reskilling_required</text>
	<text x="364" y="297.8" fill="#000000" font-family="Verdana" font-size="12">industry_ai_adoption_stage</text>
	<text x="364" y="314.8" fill="#000000" font-family="Verdana" font-size="12">company_size_name</text>
</g>

<!-- Entity COMPANY -->
<g>
	<g>
		<rect x="728" y="178" width="108" height="25" fill="#fdae61" stroke="none" stroke-width="0" opacity="1"/>
		<rect x="728" y="203" width="108" height="43" fill="#fee08b" stroke="none" stroke-width="0" opacity="1"/>
		<rect x="728" y="178" width="108" height="68" fill="none" stroke="#f46d43" stroke-width="2" opacity="1"/>
		<line x1="728" y1="203" x2="836" y2="203" stroke="#f46d43" stroke-width="1"/>
	</g>
	<text x="752" y="195.75" fill="#000000" font-family="Verdana" font-size="12">COMPANY</text>
	<text x="733" y="220.8" fill="#000000" font-family="Verdana" font-size="12">id_company</text>
	<line x1="733" y1="223" x2="807" y2="223" stroke="#000000" stroke-width="1"/>
	<text x="733" y="237.8" fill="#000000" font-family="Verdana" font-size="12">company_name</text>
</g>

<!-- Entity REGION -->
<g>
	<g>
		<rect x="132" y="347" width="90" height="25" fill="#fdae61" stroke="none" stroke-width="0" opacity="1"/>
		<rect x="132" y="372" width="90" height="43" fill="#fee08b" stroke="none" stroke-width="0" opacity="1"/>
		<rect x="132" y="347" width="90" height="68" fill="none" stroke="#f46d43" stroke-width="2" opacity="1"/>
		<line x1="132" y1="372" x2="222" y2="372" stroke="#f46d43" stroke-width="1"/>
	</g>
	<text x="152" y="364.75" fill="#000000" font-family="Verdana" font-size="12">REGION</text>
	<text x="137" y="389.8" fill="#000000" font-family="Verdana" font-size="12">id_region</text>
	<line x1="137" y1="392" x2="194" y2="392" stroke="#000000" stroke-width="1"/>
	<text x="137" y="406.8" fill="#000000" font-family="Verdana" font-size="12">region_name</text>
</g>

<!-- Entity SENIORITY_LEVEL -->
<g>
	<g>
		<rect x="254" y="347" width="124" height="25" fill="#fdae61" stroke="none" stroke-width="0" opacity="1"/>
		<rect x="254" y="372" width="124" height="43" fill="#fee08b" stroke="none" stroke-width="0" opacity="1"/>
		<rect x="254" y="347" width="124" height="68" fill="none" stroke="#f46d43" stroke-width="2" opacity="1"/>
		<line x1="254" y1="372" x2="378" y2="372" stroke="#f46d43" stroke-width="1"/>
	</g>
	<text x="260" y="364.75" fill="#000000" font-family="Verdana" font-size="12">SENIORITY_LEVEL</text>
	<text x="259" y="389.8" fill="#000000" font-family="Verdana" font-size="12">id_level</text>
	<line x1="259" y1="392" x2="306" y2="392" stroke="#000000" stroke-width="1"/>
	<text x="259" y="406.8" fill="#000000" font-family="Verdana" font-size="12">level_name</text>
</g>

<!-- Entity AI_JOB_DISPLACEMENT_RISK -->
<g>
	<g>
		<rect x="684" y="347" width="196" height="25" fill="#fdae61" stroke="none" stroke-width="0" opacity="1"/>
		<rect x="684" y="372" width="196" height="43" fill="#fee08b" stroke="none" stroke-width="0" opacity="1"/>
		<rect x="684" y="347" width="196" height="68" fill="none" stroke="#f46d43" stroke-width="2" opacity="1"/>
		<line x1="684" y1="372" x2="880" y2="372" stroke="#f46d43" stroke-width="1"/>
	</g>
	<text x="690" y="364.75" fill="#000000" font-family="Verdana" font-size="12">AI_JOB_DISPLACEMENT_RISK</text>
	<text x="689" y="389.8" fill="#000000" font-family="Verdana" font-size="12">id_ai_risk</text>
	<line x1="689" y1="392" x2="748" y2="392" stroke="#000000" stroke-width="1"/>
	<text x="689" y="406.8" fill="#000000" font-family="Verdana" font-size="12">valeur</text>
</g>
</svg>